HIERARCHY
ROOT root
{
	OFFSET 0.000000 0.000000 0.000000
	CHANNELS 6 Xposition Yposition Zposition Zrotation Yrotation Xrotation
	JOINT lhip
	{
		OFFSET 0.058581 -0.082280 -0.017664
		CHANNELS 3 Zrotation Yrotation Xrotation
		JOINT lknee
		{
			OFFSET 0.043451 -0.386469 0.008037
			CHANNELS 3 Zrotation Yrotation Xrotation
			JOINT lankle
			{
				OFFSET -0.014790 -0.426874 -0.037428
				CHANNELS 3 Zrotation Yrotation Xrotation
				JOINT ltoe
				{
					OFFSET 0.041054 -0.060286 0.122042
					CHANNELS 3 Zrotation Yrotation Xrotation
					End Site
					{
						OFFSET 0.000000 0.000000 0.000000
					}
				}
			}
		}
	}
	JOINT rhip
	{
		OFFSET -0.060310 -0.090513 -0.013543
		CHANNELS 3 Zrotation Yrotation Xrotation
		JOINT rknee
		{
			OFFSET -0.043257 -0.383688 -0.004843
			CHANNELS 3 Zrotation Yrotation Xrotation
			JOINT rankle
			{
				OFFSET 0.019056 -0.420046 -0.034562
				CHANNELS 3 Zrotation Yrotation Xrotation
				JOINT rtoe
				{
					OFFSET -0.034840 -0.062106 0.130323
					CHANNELS 3 Zrotation Yrotation Xrotation
					End Site
					{
						OFFSET 0.000000 0.000000 0.000000
					}
				}
			}
		}
	}
	JOINT lowerback
	{
		OFFSET 0.004439 0.124404 -0.038385
		CHANNELS 3 Zrotation Yrotation Xrotation
		JOINT upperback
		{
			OFFSET 0.004488 0.137956 0.026820
			CHANNELS 3 Zrotation Yrotation Xrotation
			JOINT chest
			{
				OFFSET -0.002265 0.056032 0.002855
				CHANNELS 3 Zrotation Yrotation Xrotation
				JOINT lowerneck
				{
					OFFSET -0.013390 0.211636 -0.033468
					CHANNELS 3 Zrotation Yrotation Xrotation
					JOINT upperneck
					{
						OFFSET 0.010113 0.088937 0.050410
						CHANNELS 3 Zrotation Yrotation Xrotation
						End Site
						{
							OFFSET 0.000000 0.000000 0.000000
						}
					}
				}
				JOINT lclavicle
				{
					OFFSET 0.071702 0.114000 -0.018898
					CHANNELS 3 Zrotation Yrotation Xrotation
					JOINT lshoulder
					{
						OFFSET 0.122921 0.045205 -0.019046
						CHANNELS 3 Zrotation Yrotation Xrotation
						JOINT lelbow
						{
							OFFSET 0.255332 -0.015649 -0.022946
							CHANNELS 3 Zrotation Yrotation Xrotation
							JOINT lwrist
							{
								OFFSET 0.265709 0.012698 -0.007375
								CHANNELS 3 Zrotation Yrotation Xrotation
								End Site
								{
									OFFSET 0.000000 0.000000 0.000000
								}
							}
						}
					}
				}
				JOINT rclavicle
				{
					OFFSET -0.082954 0.112472 -0.023707
					CHANNELS 3 Zrotation Yrotation Xrotation
					JOINT rshoulder
					{
						OFFSET -0.113228 0.046853 -0.008472
						CHANNELS 3 Zrotation Yrotation Xrotation
						JOINT relbow
						{
							OFFSET -0.260127 -0.014369 -0.031269
							CHANNELS 3 Zrotation Yrotation Xrotation
							JOINT rwrist
							{
								OFFSET -0.269108 0.006794 -0.006027
								CHANNELS 3 Zrotation Yrotation Xrotation
								End Site
								{
									OFFSET 0.000000 0.000000 0.000000
								}
							}
						}
					}
				}
			}
		}
	}
}
MOTION
Frames: 13
Frame Time: 0.033333
0.192184 0.793077 0.998160 -94.759617 -1.326182 76.414263 7.726075 -5.435928 -36.281024 -7.082904 11.991809 71.419394 5.709531 9.183741 -17.762189 0.000000 -0.000000 0.000000 0.693516 -3.790554 9.730929 3.342748 6.582222 10.576533 0.567915 -2.089288 -8.919864 0.000000 -0.000000 0.000000 -1.773968 8.727321 18.522756 2.487966 -4.225894 1.957495 -0.068466 -2.318040 8.633245 1.086970 -1.670637 10.278100 2.300286 -1.642298 14.365412 -26.216362 6.412039 4.407404 -59.476387 -4.033161 5.115661 9.544420 -23.973626 6.637439 -4.835894 2.152400 -9.638784 24.097607 -4.006930 -0.062540 58.511197 6.505137 11.274319 -15.689831 36.498171 -5.799187 2.789182 0.823114 -12.884309 
0.182398 0.793312 0.998042 -94.909557 -1.576520 76.379385 8.061344 -5.441832 -37.615148 -7.464831 11.883100 68.739389 5.561552 8.844080 -16.883879 0.000000 -0.000000 0.000000 0.424658 -4.075322 10.374809 3.130128 7.033563 10.813550 0.417808 -2.103511 -9.630657 0.000000 -0.000000 0.000000 -1.851859 9.082254 18.664002 2.345146 -4.168761 1.914359 -0.186183 -2.182889 8.526255 1.120166 -1.622210 10.549603 2.490635 -2.041560 14.554562 -26.235758 6.662648 4.762748 -59.382536 -3.542605 4.909921 9.921572 -23.420539 5.903923 -4.273006 1.849815 -9.905856 24.128244 -3.909562 0.181896 58.374508 6.805936 11.382475 -15.541785 36.939073 -5.469907 2.624081 0.933778 -12.768270 
0.168960 0.793155 0.997475 -95.185480 -1.833218 76.235527 8.270037 -5.413208 -38.387713 -7.858235 11.496128 64.910362 5.297646 8.840983 -16.726993 0.000000 -0.000000 0.000000 0.127243 -3.964653 11.297227 3.082721 7.576954 11.274668 0.384845 -2.290276 -10.839991 0.000000 -0.000000 0.000000 -1.982231 9.494173 18.558613 2.274164 -4.046949 2.353754 -0.229610 -2.000546 8.726502 1.238099 -1.287788 10.470462 2.212760 -2.233766 14.506284 -26.430318 6.886982 4.650877 -59.200689 -3.190015 4.727836 10.135071 -22.608281 5.318554 -4.466303 2.018439 -10.187384 24.160047 -3.563106 0.146083 58.231894 7.256087 11.666171 -15.451019 37.000606 -5.292685 2.707267 0.994711 -12.457097 
0.155160 0.792835 0.996658 -95.298517 -2.012523 76.095258 8.150526 -5.581464 -38.238277 -8.450982 10.635084 61.310650 4.985713 8.691554 -16.180870 0.000000 -0.000000 0.000000 -0.060139 -3.885094 12.338475 2.910734 7.896231 11.518572 0.352601 -2.691741 -11.952901 0.000000 -0.000000 0.000000 -2.131359 9.729456 18.480385 2.136871 -3.882646 2.629607 -0.259319 -1.715999 8.879626 1.443323 -1.124451 10.677539 2.020967 -2.509177 14.559629 -26.455355 7.282410 4.232781 -58.848738 -2.827919 4.715326 10.035935 -22.488450 5.200261 -4.510263 1.934331 -10.246807 24.246647 -3.335920 0.029678 58.175538 7.329007 12.025436 -15.256585 37.167583 -4.964425 3.009095 0.715360 -12.136577 
0.140837 0.792408 0.995518 -95.480265 -2.029090 76.160485 8.009561 -5.628531 -37.744848 -8.768838 9.800761 58.237310 5.136398 8.500867 -15.581451 0.000000 -0.000000 0.000000 -0.272151 -3.771632 13.530183 3.002087 8.302393 11.244583 0.416489 -2.730048 -12.768370 0.000000 -0.000000 0.000000 -2.169498 9.926645 17.998384 2.039908 -3.761800 3.094634 -0.369789 -1.521602 8.856965 1.541055 -1.034586 11.226797 1.802998 -2.792075 14.598873 -26.555738 7.476209 4.190650 -58.398970 -2.459541 4.703126 10.163843 -22.921290 4.941341 -4.525279 2.093328 -10.286566 24.568060 -3.019025 0.284245 57.935979 7.658804 12.142493 -15.043427 37.295945 -4.654700 3.112647 1.028948 -11.551227 
0.122997 0.791297 0.993671 -95.507218 -1.839238 76.709810 7.923536 -5.781663 -37.193935 -9.063063 9.060886 55.497168 5.228787 8.556520 -15.203843 0.000000 -0.000000 0.000000 -0.590843 -4.120017 14.644091 3.136326 8.415725 10.633438 0.383793 -2.440842 -13.547931 0.000000 -0.000000 0.000000 -2.187819 10.157440 17.215555 1.987272 -3.693061 3.236888 -0.427876 -1.394860 8.788834 1.647467 -0.998948 11.505133 1.736814 -3.191983 14.870319 -26.418053 8.049563 4.403369 -58.122752 -2.285353 4.778794 10.258335 -24.247464 5.006625 -4.053457 1.933482 -10.316338 24.660165 -3.085903 0.319003 58.098039 7.719048 12.329915 -14.327453 37.677455 -3.643755 3.223829 1.142466 -11.204998 
0.108894 0.790112 0.992084 -95.747279 -1.644722 77.359346 7.810379 -5.864965 -36.476955 -9.334272 8.312741 53.775005 5.139900 8.099315 -14.518720 0.000000 -0.000000 0.000000 -0.644866 -4.032022 15.218751 3.164607 8.513151 10.233552 0.609939 -2.367102 -14.237979 0.000000 -0.000000 0.000000 -2.224958 10.334757 16.648388 1.956600 -3.384732 3.191704 -0.425334 -1.145206 8.819591 1.703028 -0.763593 11.453668 1.416906 -3.296493 14.737794 -26.348083 8.518513 3.722179 -57.858332 -2.192791 4.940835 9.966448 -25.066556 5.303022 -4.166294 1.912809 -10.373304 24.776630 -3.325827 0.048234 58.314208 7.726670 12.690787 -14.086469 38.200045 -3.306981 3.419229 1.086066 -11.275153 
0.094751 0.788550 0.990174 -95.905565 -1.408905 78.271544 7.689073 -6.121210 -35.896841 -9.683841 7.520311 52.543921 5.053569 8.010755 -14.244775 0.000000 -0.000000 0.000000 -0.556011 -3.842526 15.206722 3.222779 8.628081 10.380396 0.765058 -2.588601 -14.969453 0.000000 -0.000000 0.000000 -2.408192 10.476700 15.915419 1.971048 -3.089388 3.219430 -0.422937 -0.988505 8.611777 1.924084 -0.542548 11.276139 1.561493 -3.438428 14.800488 -26.143335 8.712818 3.934116 -57.758152 -2.226306 5.175326 10.034060 -26.467502 5.106774 -4.202579 1.853168 -10.895321 24.811505 -3.205329 0.166712 58.531188 7.553410 12.881764 -13.904860 38.738349 -3.202813 3.792237 1.096467 -11.738776 
0.080066 0.786343 0.988795 -96.090444 -1.284570 79.116467 7.333046 -6.472830 -34.693026 -9.885902 6.801754 51.027400 5.164163 7.888159 -14.281966 0.000000 -0.000000 0.000000 -0.675468 -3.889005 15.250337 3.098401 8.620002 10.629215 0.925576 -2.474483 -15.564910 0.000000 -0.000000 0.000000 -2.642481 10.748491 15.422048 1.877300 -2.846065 3.101418 -0.398372 -0.841187 8.391449 2.005570 -0.667775 11.184134 1.584703 -3.816505 14.785026 -25.856654 8.750328 4.161494 -57.751963 -2.327953 5.355107 10.200264 -27.922455 5.007625 -3.924699 1.529009 -11.223051 24.824020 -3.084780 0.351173 58.800697 7.516148 12.954910 -13.750112 39.189689 -2.849443 3.832768 1.154582 -11.775248 
0.064816 0.783095 0.987935 -96.448774 -1.291835 79.954353 6.478484 -6.372586 -33.178742 -9.263102 6.564912 49.764356 7.495479 9.761041 -17.438943 0.000000 -0.000000 0.000000 -0.972423 -3.800931 15.327286 2.919225 8.665278 10.768921 1.259456 -2.829517 -15.497679 0.000000 -0.000000 0.000000 -2.787666 10.961989 14.856367 1.548966 -2.367281 3.039654 -0.514116 -0.586600 8.832499 2.218918 -0.509997 10.226784 1.303371 -3.641677 14.497819 -25.543852 8.637223 3.498403 -57.456216 -2.562387 5.451208 9.797888 -29.080180 5.626523 -3.789396 1.417692 -11.199868 24.687781 -2.927026 -0.062825 59.353935 7.295645 13.342991 -13.739868 39.507718 -2.801920 3.628236 1.126676 -11.626720 
0.049688 0.779438 0.988417 -96.312467 -1.332163 80.898513 5.845160 -6.599742 -33.801384 -9.067118 6.916049 51.237069 8.132243 9.745150 -18.358455 0.000000 -0.000000 0.000000 -1.226841 -3.782630 15.217995 2.709213 8.697762 11.175885 1.501963 -2.857850 -14.831090 0.000000 -0.000000 0.000000 -2.971143 11.093456 14.751292 1.239812 -2.267341 2.523446 -0.784529 -0.492481 8.699451 2.143331 -0.805068 9.814538 1.599043 -3.686243 14.576912 -25.302737 8.385890 3.514937 -57.108487 -2.938264 5.467278 9.790282 -29.754238 5.736139 -3.666921 1.234821 -11.091141 24.668957 -2.878287 -0.036197 59.685749 6.896236 13.550304 -13.618724 39.710490 -2.462179 3.748355 1.281961 -11.551979 
0.035001 0.775194 0.991452 -96.167854 -1.482136 81.777740 5.494803 -7.080456 -33.701979 -9.039362 7.388256 51.115341 7.847994 10.172556 -18.710747 0.000000 -0.000000 0.000000 -1.764695 -3.833889 14.798220 2.517733 8.663860 11.721957 2.527872 -2.824346 -12.870466 0.000000 -0.000000 0.000000 -3.355885 11.484175 14.783529 0.962897 -2.143524 2.278172 -0.922575 -0.299355 8.309052 2.094651 -1.495079 9.635843 2.125279 -3.968030 14.306990 -25.145944 7.817086 3.222320 -56.873007 -3.528656 5.611965 9.998942 -29.883304 5.331462 -3.486674 1.191155 -10.828175 24.372967 -2.949288 0.047589 60.156674 6.477251 13.689996 -13.502168 39.261905 -2.511091 4.434076 0.974269 -11.938119 
0.017682 0.770946 0.997750 -96.133713 -1.299951 82.281174 4.505136 -7.015193 -31.856219 -9.050703 6.440565 49.836040 8.722159 11.071541 -20.185967 0.000000 -0.000000 0.000000 -2.006150 -3.934985 14.902993 2.238594 8.564716 12.249579 3.495206 -2.451555 -9.742260 0.000000 -0.000000 0.000000 -3.614565 11.835786 14.276248 0.809929 -1.785553 2.620255 -0.950014 -0.355206 8.373210 2.161085 -1.970476 9.250949 2.614197 -3.996866 14.012864 -25.067654 7.077843 3.401334 -56.940238 -4.314252 5.425091 10.704826 -30.090864 4.196968 -3.302749 1.279740 -11.094164 24.217297 -2.795322 0.358295 60.226373 6.047845 13.564260 -13.930553 39.446381 -3.187115 4.208587 1.234255 -11.760895 
